# MagicaVoxel @ Ephtracy

# group
o 

# material
mtllib player.mtl
usemtl palette

# normals
vn -1 0 0
vn 1 0 0
vn 0 0 1
vn 0 0 -1
vn 0 -1 0
vn 0 1 0

# texcoords
vt 0.0292969 0.5
vt 0.615234 0.5
vt 0.685547 0.5
vt 0.708984 0.5
vt 0.841797 0.5
vt 0.845703 0.5
vt 0.958984 0.5
vt 0.986328 0.5
vt 0.990234 0.5
vt 0.994141 0.5

# verts
v -1.4 1.4 0.4
v -1.4 1.4 -0.2
v -1.4 2.2 0.4
v -1.4 2.2 -0.2
v -1.4 2.6 0.4
v -1.4 2.6 -0.2
v -1.3 2.6 0.4
v -1.3 2.6 -0.2
v -1.3 2.7 0.4
v -1.3 2.7 -0.2
v -1.2 2.7 0.4
v -1.2 2.7 -0.2
v -1.2 2.8 0.4
v -1.2 2.8 -0.2
v -0.8 0 0.4
v -0.8 0 -0.2
v -0.8 0.2 0.4
v -0.8 0.2 -0.2
v -0.8 1.8 0.4
v -0.8 1.8 -0.2
v -0.8 2 0.4
v -0.8 2 -0.2
v -0.8 2.4 0.4
v -0.8 2.4 -0.2
v -0.7 2.8 0.8
v -0.7 2.8 0.4
v -0.7 2.8 -0.2
v -0.7 2.8 -0.6
v -0.7 3.3 -5.96046e-08
v -0.7 3.3 -0.6
v -0.7 3.4 0.8
v -0.7 3.4 0.7
v -0.7 3.4 0.4
v -0.7 3.4 -5.96046e-08
v -0.7 3.5 0.8
v -0.7 3.5 0.7
v -0.7 3.6 0.6
v -0.7 3.6 0.4
v -0.7 3.7 0.8
v -0.7 3.7 0.6
v -0.7 4 0.8
v -0.7 4 -0.6
v 0 1.2 0.4
v 0 1.2 -0.2
v 0 1.5 0.4
v 0 1.5 -0.2
v 0.1 0 0.4
v 0.1 0 -0.2
v 0.1 0.2 0.4
v 0.1 0.2 -0.2
v 0.1 1.2 0.4
v 0.1 1.2 -0.2
v 0.8 1.4 0.4
v 0.8 1.4 -0.2
v 0.8 2.2 0.4
v 0.8 2.2 -0.2
v 0.8 2.4 0.4
v 0.8 2.4 -0.2
v -0.9 1.4 0.4
v -0.9 1.4 -0.2
v -0.9 2.2 0.4
v -0.9 2.2 -0.2
v -0.9 2.4 0.4
v -0.9 2.4 -0.2
v -0.2 0 0.4
v -0.2 0 -0.2
v -0.2 0.2 0.4
v -0.2 0.2 -0.2
v -0.2 1.2 0.4
v -0.2 1.2 -0.2
v -0.1 1.2 0.4
v -0.1 1.2 -0.2
v -0.1 1.5 0.4
v -0.1 1.5 -0.2
v 0.6 2.8 0.8
v 0.6 2.8 0.4
v 0.6 2.8 -0.2
v 0.6 2.8 -0.6
v 0.6 3.3 0.1
v 0.6 3.3 -0.6
v 0.6 3.4 0.8
v 0.6 3.4 0.7
v 0.6 3.4 0.4
v 0.6 3.4 0.1
v 0.6 3.5 0.8
v 0.6 3.5 0.7
v 0.6 3.6 0.6
v 0.6 3.6 0.4
v 0.6 3.7 0.8
v 0.6 3.7 0.6
v 0.6 4 0.8
v 0.6 4 -0.6
v 0.7 0 0.4
v 0.7 0 -0.2
v 0.7 0.2 0.4
v 0.7 0.2 -0.2
v 0.7 1.8 0.4
v 0.7 1.8 -0.2
v 0.7 2 0.4
v 0.7 2 -0.2
v 0.7 2.4 0.4
v 0.7 2.4 -0.2
v 1.1 2.7 0.4
v 1.1 2.7 -0.2
v 1.1 2.8 0.4
v 1.1 2.8 -0.2
v 1.2 2.6 0.4
v 1.2 2.6 -0.2
v 1.2 2.7 0.4
v 1.2 2.7 -0.2
v 1.3 1.4 0.4
v 1.3 1.4 -0.2
v 1.3 2.2 0.4
v 1.3 2.2 -0.2
v 1.3 2.6 0.4
v 1.3 2.6 -0.2
v -0.7 2.8 0.8
v -0.7 3.4 0.8
v -0.7 3.5 0.8
v -0.7 3.7 0.8
v -0.7 4 0.8
v -0.6 3.4 0.8
v -0.6 3.5 0.8
v -0.5 3.4 0.8
v -0.5 3.5 0.8
v -0.4 3.1 0.8
v -0.4 3.2 0.8
v -0.2 3 0.8
v -0.2 3.1 0.8
v 0 3 0.8
v 0 3.1 0.8
v 0.1 3 0.8
v 0.1 3.1 0.8
v 0.2 3 0.8
v 0.2 3.1 0.8
v 0.2 3.2 0.8
v 0.4 3.4 0.8
v 0.4 3.5 0.8
v 0.5 3.4 0.8
v 0.5 3.5 0.8
v 0.6 2.8 0.8
v 0.6 3.4 0.8
v 0.6 3.5 0.8
v 0.6 3.7 0.8
v 0.6 4 0.8
v -1.4 1.4 0.4
v -1.4 2.2 0.4
v -1.4 2.6 0.4
v -1.3 2.6 0.4
v -1.3 2.7 0.4
v -1.2 2.7 0.4
v -1.2 2.8 0.4
v -0.9 1.4 0.4
v -0.9 2.2 0.4
v -0.9 2.4 0.4
v -0.8 0 0.4
v -0.8 0.2 0.4
v -0.8 1.8 0.4
v -0.8 2 0.4
v -0.8 2.4 0.4
v -0.7 2.8 0.4
v -0.2 0 0.4
v -0.2 0.2 0.4
v -0.2 1.2 0.4
v -0.2 2.7 0.4
v -0.2 2.8 0.4
v -0.1 1.2 0.4
v -0.1 1.5 0.4
v -0.1 2.6 0.4
v -0.1 2.7 0.4
v 0 1.2 0.4
v 0 1.5 0.4
v 0 2.6 0.4
v 0 2.7 0.4
v 0.1 0 0.4
v 0.1 0.2 0.4
v 0.1 1.2 0.4
v 0.1 2.7 0.4
v 0.1 2.8 0.4
v 0.6 2.8 0.4
v 0.7 0 0.4
v 0.7 0.2 0.4
v 0.7 1.8 0.4
v 0.7 2 0.4
v 0.7 2.4 0.4
v 0.8 1.4 0.4
v 0.8 2.2 0.4
v 0.8 2.4 0.4
v 1.1 2.7 0.4
v 1.1 2.8 0.4
v 1.2 2.6 0.4
v 1.2 2.7 0.4
v 1.3 1.4 0.4
v 1.3 2.2 0.4
v 1.3 2.6 0.4
v -1.4 1.4 -0.2
v -1.4 2.2 -0.2
v -1.4 2.6 -0.2
v -1.3 2.6 -0.2
v -1.3 2.7 -0.2
v -1.2 2.7 -0.2
v -1.2 2.8 -0.2
v -0.9 1.4 -0.2
v -0.9 2.2 -0.2
v -0.9 2.4 -0.2
v -0.8 0 -0.2
v -0.8 0.2 -0.2
v -0.8 1.8 -0.2
v -0.8 2 -0.2
v -0.8 2.4 -0.2
v -0.7 2.8 -0.2
v -0.2 0 -0.2
v -0.2 0.2 -0.2
v -0.2 1.2 -0.2
v -0.2 2.7 -0.2
v -0.2 2.8 -0.2
v -0.1 1.2 -0.2
v -0.1 1.5 -0.2
v -0.1 2.6 -0.2
v -0.1 2.7 -0.2
v 0 1.2 -0.2
v 0 1.5 -0.2
v 0 2.6 -0.2
v 0 2.7 -0.2
v 0.1 0 -0.2
v 0.1 0.2 -0.2
v 0.1 1.2 -0.2
v 0.1 2.7 -0.2
v 0.1 2.8 -0.2
v 0.6 2.8 -0.2
v 0.7 0 -0.2
v 0.7 0.2 -0.2
v 0.7 1.8 -0.2
v 0.7 2 -0.2
v 0.7 2.4 -0.2
v 0.8 1.4 -0.2
v 0.8 2.2 -0.2
v 0.8 2.4 -0.2
v 1.1 2.7 -0.2
v 1.1 2.8 -0.2
v 1.2 2.6 -0.2
v 1.2 2.7 -0.2
v 1.3 1.4 -0.2
v 1.3 2.2 -0.2
v 1.3 2.6 -0.2
v -0.7 2.8 -0.6
v -0.7 3.3 -0.6
v -0.7 4 -0.6
v 0.6 2.8 -0.6
v 0.6 3.3 -0.6
v 0.6 4 -0.6
v -0.8 0 0.4
v -0.2 0 0.4
v 0.1 0 0.4
v 0.7 0 0.4
v -0.8 0 -0.2
v -0.2 0 -0.2
v 0.1 0 -0.2
v 0.7 0 -0.2
v -0.2 1.2 0.4
v -0.1 1.2 0.4
v 0 1.2 0.4
v 0.1 1.2 0.4
v -0.2 1.2 -0.2
v -0.1 1.2 -0.2
v 0 1.2 -0.2
v 0.1 1.2 -0.2
v -1.4 1.4 0.4
v -0.9 1.4 0.4
v 0.8 1.4 0.4
v 1.3 1.4 0.4
v -1.4 1.4 -0.2
v -0.9 1.4 -0.2
v 0.8 1.4 -0.2
v 1.3 1.4 -0.2
v -0.1 1.5 0.4
v 0 1.5 0.4
v -0.1 1.5 -0.2
v 0 1.5 -0.2
v -0.9 2.4 0.4
v -0.8 2.4 0.4
v 0.7 2.4 0.4
v 0.8 2.4 0.4
v -0.9 2.4 -0.2
v -0.8 2.4 -0.2
v 0.7 2.4 -0.2
v 0.8 2.4 -0.2
v -0.7 2.8 0.8
v 0.6 2.8 0.8
v -0.7 2.8 0.4
v -0.2 2.8 0.4
v 0.1 2.8 0.4
v 0.6 2.8 0.4
v -0.7 2.8 -0.2
v -0.2 2.8 -0.2
v 0.1 2.8 -0.2
v 0.6 2.8 -0.2
v -0.7 2.8 -0.6
v 0.6 2.8 -0.6
v -1.4 2.6 0.4
v -1.3 2.6 0.4
v 1.2 2.6 0.4
v 1.3 2.6 0.4
v -1.4 2.6 -0.2
v -1.3 2.6 -0.2
v 1.2 2.6 -0.2
v 1.3 2.6 -0.2
v -1.3 2.7 0.4
v -1.2 2.7 0.4
v 1.1 2.7 0.4
v 1.2 2.7 0.4
v -1.3 2.7 -0.2
v -1.2 2.7 -0.2
v 1.1 2.7 -0.2
v 1.2 2.7 -0.2
v -1.2 2.8 0.4
v -0.7 2.8 0.4
v 0.6 2.8 0.4
v 1.1 2.8 0.4
v -1.2 2.8 -0.2
v -0.7 2.8 -0.2
v 0.6 2.8 -0.2
v 1.1 2.8 -0.2
v -0.7 4 0.8
v 0.6 4 0.8
v -0.7 4 -0.6
v 0.6 4 -0.6

# faces
f 3/1/1 2/1/1 1/1/1
f 4/1/1 2/1/1 3/1/1
f 5/2/1 4/2/1 3/2/1
f 6/2/1 4/2/1 5/2/1
f 9/2/1 8/2/1 7/2/1
f 10/2/1 8/2/1 9/2/1
f 13/2/1 12/2/1 11/2/1
f 14/2/1 12/2/1 13/2/1
f 17/8/1 16/8/1 15/8/1
f 18/8/1 16/8/1 17/8/1
f 19/3/1 18/3/1 17/3/1
f 20/3/1 18/3/1 19/3/1
f 21/10/1 20/10/1 19/10/1
f 22/10/1 20/10/1 21/10/1
f 23/2/1 22/2/1 21/2/1
f 24/2/1 22/2/1 23/2/1
f 29/1/1 26/1/1 25/1/1
f 29/1/1 28/1/1 27/1/1
f 29/1/1 27/1/1 26/1/1
f 30/1/1 28/1/1 29/1/1
f 31/1/1 29/1/1 25/1/1
f 32/1/1 29/1/1 31/1/1
f 33/1/1 29/1/1 32/1/1
f 34/9/1 30/9/1 29/9/1
f 34/1/1 29/1/1 33/1/1
f 35/10/1 32/10/1 31/10/1
f 36/1/1 33/1/1 32/1/1
f 36/10/1 32/10/1 35/10/1
f 37/1/1 36/1/1 35/1/1
f 37/1/1 33/1/1 36/1/1
f 38/9/1 34/9/1 33/9/1
f 38/1/1 33/1/1 37/1/1
f 39/1/1 37/1/1 35/1/1
f 40/9/1 38/9/1 37/9/1
f 40/1/1 37/1/1 39/1/1
f 41/9/1 40/9/1 39/9/1
f 42/9/1 30/9/1 34/9/1
f 42/9/1 40/9/1 41/9/1
f 42/9/1 34/9/1 38/9/1
f 42/9/1 38/9/1 40/9/1
f 45/3/1 44/3/1 43/3/1
f 46/3/1 44/3/1 45/3/1
f 49/8/1 48/8/1 47/8/1
f 50/8/1 48/8/1 49/8/1
f 51/3/1 50/3/1 49/3/1
f 52/3/1 50/3/1 51/3/1
f 55/1/1 54/1/1 53/1/1
f 56/1/1 54/1/1 55/1/1
f 57/2/1 56/2/1 55/2/1
f 58/2/1 56/2/1 57/2/1
f 59/1/2 60/1/2 61/1/2
f 61/1/2 60/1/2 62/1/2
f 61/2/2 62/2/2 63/2/2
f 63/2/2 62/2/2 64/2/2
f 65/8/2 66/8/2 67/8/2
f 67/8/2 66/8/2 68/8/2
f 67/3/2 68/3/2 69/3/2
f 69/3/2 68/3/2 70/3/2
f 71/3/2 72/3/2 73/3/2
f 73/3/2 72/3/2 74/3/2
f 75/1/2 76/1/2 79/1/2
f 77/1/2 78/1/2 79/1/2
f 76/1/2 77/1/2 79/1/2
f 79/1/2 78/1/2 80/1/2
f 75/1/2 79/1/2 81/1/2
f 81/1/2 79/1/2 82/1/2
f 82/1/2 79/1/2 83/1/2
f 79/9/2 80/9/2 84/9/2
f 83/1/2 79/1/2 84/1/2
f 81/10/2 82/10/2 85/10/2
f 82/1/2 83/1/2 86/1/2
f 85/10/2 82/10/2 86/10/2
f 85/1/2 86/1/2 87/1/2
f 86/1/2 83/1/2 87/1/2
f 83/9/2 84/9/2 88/9/2
f 87/1/2 83/1/2 88/1/2
f 85/1/2 87/1/2 89/1/2
f 87/9/2 88/9/2 90/9/2
f 89/1/2 87/1/2 90/1/2
f 89/9/2 90/9/2 91/9/2
f 84/9/2 80/9/2 92/9/2
f 91/9/2 90/9/2 92/9/2
f 88/9/2 84/9/2 92/9/2
f 90/9/2 88/9/2 92/9/2
f 93/8/2 94/8/2 95/8/2
f 95/8/2 94/8/2 96/8/2
f 95/3/2 96/3/2 97/3/2
f 97/3/2 96/3/2 98/3/2
f 97/10/2 98/10/2 99/10/2
f 99/10/2 98/10/2 100/10/2
f 99/2/2 100/2/2 101/2/2
f 101/2/2 100/2/2 102/2/2
f 103/2/2 104/2/2 105/2/2
f 105/2/2 104/2/2 106/2/2
f 107/2/2 108/2/2 109/2/2
f 109/2/2 108/2/2 110/2/2
f 111/1/2 112/1/2 113/1/2
f 113/1/2 112/1/2 114/1/2
f 113/2/2 114/2/2 115/2/2
f 115/2/2 114/2/2 116/2/2
f 122/1/3 118/1/3 117/1/3
f 122/10/3 119/10/3 118/10/3
f 123/1/3 120/1/3 119/1/3
f 123/10/3 119/10/3 122/10/3
f 124/1/3 122/1/3 117/1/3
f 124/7/3 123/7/3 122/7/3
f 125/1/3 120/1/3 123/1/3
f 125/7/3 123/7/3 124/7/3
f 126/1/3 124/1/3 117/1/3
f 126/1/3 125/1/3 124/1/3
f 127/1/3 125/1/3 126/1/3
f 128/1/3 126/1/3 117/1/3
f 129/10/3 127/10/3 126/10/3
f 129/1/3 126/1/3 128/1/3
f 130/1/3 128/1/3 117/1/3
f 130/10/3 129/10/3 128/10/3
f 131/10/3 127/10/3 129/10/3
f 131/10/3 129/10/3 130/10/3
f 132/1/3 130/1/3 117/1/3
f 132/5/3 131/5/3 130/5/3
f 133/10/3 127/10/3 131/10/3
f 133/5/3 131/5/3 132/5/3
f 134/1/3 132/1/3 117/1/3
f 134/6/3 133/6/3 132/6/3
f 135/10/3 127/10/3 133/10/3
f 135/6/3 133/6/3 134/6/3
f 136/1/3 125/1/3 127/1/3
f 136/10/3 127/10/3 135/10/3
f 137/1/3 135/1/3 134/1/3
f 137/1/3 125/1/3 136/1/3
f 137/1/3 136/1/3 135/1/3
f 138/1/3 120/1/3 125/1/3
f 138/1/3 125/1/3 137/1/3
f 139/1/3 137/1/3 134/1/3
f 139/7/3 138/7/3 137/7/3
f 140/1/3 120/1/3 138/1/3
f 140/7/3 138/7/3 139/7/3
f 141/1/3 139/1/3 134/1/3
f 141/1/3 134/1/3 117/1/3
f 142/10/3 140/10/3 139/10/3
f 142/1/3 139/1/3 141/1/3
f 143/1/3 120/1/3 140/1/3
f 143/10/3 140/10/3 142/10/3
f 144/9/3 121/9/3 120/9/3
f 144/1/3 120/1/3 143/1/3
f 145/9/3 121/9/3 144/9/3
f 149/2/3 148/2/3 147/2/3
f 151/2/3 150/2/3 149/2/3
f 153/1/3 147/1/3 146/1/3
f 154/2/3 152/2/3 151/2/3
f 154/1/3 147/1/3 153/1/3
f 154/2/3 149/2/3 147/2/3
f 154/2/3 151/2/3 149/2/3
f 155/2/3 152/2/3 154/2/3
f 160/2/3 152/2/3 155/2/3
f 161/2/3 152/2/3 160/2/3
f 161/2/3 160/2/3 159/2/3
f 162/8/3 157/8/3 156/8/3
f 163/3/3 158/3/3 157/3/3
f 163/8/3 157/8/3 162/8/3
f 164/3/3 158/3/3 163/3/3
f 165/2/3 161/2/3 159/2/3
f 166/2/3 161/2/3 165/2/3
f 167/3/3 158/3/3 164/3/3
f 168/3/3 158/3/3 167/3/3
f 169/2/3 165/2/3 159/2/3
f 170/1/3 166/1/3 165/1/3
f 170/2/3 165/2/3 169/2/3
f 172/3/3 158/3/3 168/3/3
f 173/2/3 169/2/3 159/2/3
f 173/1/3 170/1/3 169/1/3
f 174/1/3 166/1/3 170/1/3
f 174/1/3 170/1/3 173/1/3
f 177/3/3 172/3/3 171/3/3
f 178/2/3 174/2/3 173/2/3
f 178/1/3 166/1/3 174/1/3
f 179/1/3 166/1/3 178/1/3
f 180/2/3 179/2/3 178/2/3
f 181/8/3 176/8/3 175/8/3
f 182/3/3 177/3/3 176/3/3
f 182/8/3 176/8/3 181/8/3
f 183/10/3 159/10/3 158/10/3
f 183/3/3 177/3/3 182/3/3
f 183/3/3 158/3/3 172/3/3
f 183/3/3 172/3/3 177/3/3
f 184/2/3 180/2/3 178/2/3
f 184/10/3 159/10/3 183/10/3
f 184/2/3 173/2/3 159/2/3
f 184/2/3 178/2/3 173/2/3
f 185/2/3 180/2/3 184/2/3
f 188/2/3 180/2/3 185/2/3
f 189/2/3 180/2/3 188/2/3
f 189/2/3 188/2/3 187/2/3
f 190/2/3 180/2/3 189/2/3
f 191/2/3 189/2/3 187/2/3
f 192/2/3 189/2/3 191/2/3
f 193/1/3 187/1/3 186/1/3
f 194/2/3 191/2/3 187/2/3
f 194/1/3 187/1/3 193/1/3
f 195/2/3 191/2/3 194/2/3
f 197/2/4 198/2/4 199/2/4
f 199/2/4 200/2/4 201/2/4
f 196/1/4 197/1/4 203/1/4
f 201/2/4 202/2/4 204/2/4
f 203/1/4 197/1/4 204/1/4
f 197/2/4 199/2/4 204/2/4
f 199/2/4 201/2/4 204/2/4
f 204/2/4 202/2/4 205/2/4
f 205/2/4 202/2/4 210/2/4
f 210/2/4 202/2/4 211/2/4
f 209/2/4 210/2/4 211/2/4
f 206/8/4 207/8/4 212/8/4
f 207/3/4 208/3/4 213/3/4
f 212/8/4 207/8/4 213/8/4
f 213/3/4 208/3/4 214/3/4
f 209/2/4 211/2/4 215/2/4
f 215/2/4 211/2/4 216/2/4
f 214/3/4 208/3/4 217/3/4
f 217/3/4 208/3/4 218/3/4
f 209/2/4 215/2/4 219/2/4
f 215/1/4 216/1/4 220/1/4
f 219/2/4 215/2/4 220/2/4
f 218/3/4 208/3/4 222/3/4
f 209/2/4 219/2/4 223/2/4
f 219/1/4 220/1/4 223/1/4
f 220/1/4 216/1/4 224/1/4
f 223/1/4 220/1/4 224/1/4
f 221/3/4 222/3/4 227/3/4
f 223/2/4 224/2/4 228/2/4
f 224/1/4 216/1/4 228/1/4
f 228/1/4 216/1/4 229/1/4
f 228/2/4 229/2/4 230/2/4
f 225/8/4 226/8/4 231/8/4
f 226/3/4 227/3/4 232/3/4
f 231/8/4 226/8/4 232/8/4
f 208/10/4 209/10/4 233/10/4
f 232/3/4 227/3/4 233/3/4
f 222/3/4 208/3/4 233/3/4
f 227/3/4 222/3/4 233/3/4
f 228/2/4 230/2/4 234/2/4
f 233/10/4 209/10/4 234/10/4
f 209/2/4 223/2/4 234/2/4
f 223/2/4 228/2/4 234/2/4
f 234/2/4 230/2/4 235/2/4
f 235/2/4 230/2/4 238/2/4
f 238/2/4 230/2/4 239/2/4
f 237/2/4 238/2/4 239/2/4
f 239/2/4 230/2/4 240/2/4
f 237/2/4 239/2/4 241/2/4
f 241/2/4 239/2/4 242/2/4
f 236/1/4 237/1/4 243/1/4
f 237/2/4 241/2/4 244/2/4
f 243/1/4 237/1/4 244/1/4
f 244/2/4 241/2/4 245/2/4
f 246/1/4 247/1/4 249/1/4
f 247/9/4 248/9/4 250/9/4
f 249/1/4 247/1/4 250/1/4
f 250/9/4 248/9/4 251/9/4
f 256/8/5 253/8/5 252/8/5
f 257/8/5 253/8/5 256/8/5
f 258/8/5 255/8/5 254/8/5
f 259/8/5 255/8/5 258/8/5
f 264/3/5 261/3/5 260/3/5
f 265/3/5 261/3/5 264/3/5
f 266/3/5 263/3/5 262/3/5
f 267/3/5 263/3/5 266/3/5
f 272/1/5 269/1/5 268/1/5
f 273/1/5 269/1/5 272/1/5
f 274/1/5 271/1/5 270/1/5
f 275/1/5 271/1/5 274/1/5
f 278/3/5 277/3/5 276/3/5
f 279/3/5 277/3/5 278/3/5
f 284/2/5 281/2/5 280/2/5
f 285/2/5 281/2/5 284/2/5
f 286/2/5 283/2/5 282/2/5
f 287/2/5 283/2/5 286/2/5
f 290/1/5 289/1/5 288/1/5
f 291/1/5 289/1/5 290/1/5
f 292/1/5 289/1/5 291/1/5
f 293/1/5 289/1/5 292/1/5
f 298/1/5 295/1/5 294/1/5
f 298/1/5 297/1/5 296/1/5
f 298/1/5 296/1/5 295/1/5
f 299/1/5 297/1/5 298/1/5
f 300/2/6 301/2/6 304/2/6
f 304/2/6 301/2/6 305/2/6
f 302/2/6 303/2/6 306/2/6
f 306/2/6 303/2/6 307/2/6
f 308/2/6 309/2/6 312/2/6
f 312/2/6 309/2/6 313/2/6
f 310/2/6 311/2/6 314/2/6
f 314/2/6 311/2/6 315/2/6
f 316/2/6 317/2/6 320/2/6
f 320/2/6 317/2/6 321/2/6
f 318/2/6 319/2/6 322/2/6
f 322/2/6 319/2/6 323/2/6
f 324/9/6 325/9/6 326/9/6
f 326/9/6 325/9/6 327/9/6
